/* XPM */
static const char * delete_16x16x32b_xpm[] = {
"16 16 96 2",
"  	c None",
"! 	c black",
"# 	c #A45757",
"$ 	c #FCD2D0",
"% 	c #FFBCB6",
"& 	c #FBA99C",
"' 	c #FFE0DB",
"( 	c #734343",
") 	c #F4A79D",
"* 	c #FFAE98",
"+ 	c #FF6134",
", 	c #FF4E22",
"- 	c #BB3631",
". 	c #FF4217",
"0 	c #FF5B2D",
"1 	c #FFB6A0",
"2 	c #FC938C",
"3 	c #F5A499",
"4 	c #FF9476",
"5 	c #FF6D46",
"6 	c #FF835F",
"7 	c #E92B15",
"8 	c #D40001",
"9 	c #5C2C2C",
": 	c #B11A11",
"; 	c #FF9A7E",
"< 	c #FF7651",
"= 	c #FFD1C3",
"> 	c #E5A8AD",
"? 	c #FAD9D8",
"@ 	c #FF8F6E",
"A 	c #FF8766",
"B 	c #FF9278",
"C 	c #D6130C",
"D 	c #C80000",
"E 	c #790000",
"F 	c #C01F16",
"G 	c #FF4B1B",
"H 	c #FF9A80",
"I 	c #FF6036",
"J 	c #FF673D",
"K 	c #F7634A",
"L 	c #CB0000",
"M 	c #C00000",
"N 	c #340000",
"O 	c #CE1505",
"P 	c #FF3602",
"Q 	c #FF2700",
"R 	c #FF3A06",
"S 	c #E5250F",
"T 	c #C60000",
"U 	c #9E0000",
"V 	c #F8421D",
"W 	c #FF8B6B",
"X 	c #FF9E85",
"Y 	c #FF7855",
"Z 	c #EE3A21",
"[ 	c #914246",
"] 	c #F43F1B",
"^ 	c #FF9170",
"_ 	c #F57F6F",
"` 	c #E75349",
"a 	c #FFAD96",
"b 	c #FF4B1C",
"c 	c #E93F31",
"d 	c #F23D1D",
"e 	c #FF8C6C",
"f 	c #E54237",
"g 	c #C90000",
"h 	c #960000",
"i 	c #EC4A3C",
"j 	c #FF9478",
"k 	c #FF4317",
"l 	c #CA4946",
"m 	c #F4553C",
"n 	c #FD8D77",
"o 	c #D51714",
"p 	c #C50000",
"q 	c #500000",
"r 	c #F45547",
"s 	c #FF8062",
"t 	c #FD4222",
"u 	c #A25455",
"v 	c #FC6D60",
"w 	c #D00102",
"x 	c #B50000",
"y 	c #F76356",
"z 	c #FF866C",
"{ 	c #F4402D",
"| 	c #A10000",
"} 	c #810000",
"~ 	c #FD7C70",
" !	c #EF4F43",
"!!	c #EA4645",
"#!	c #700000",
"$!	c #DC0000",
"                                ",
"                                ",
"          #           $ %       ",
"        & ' (       ) * + , -   ",
"      . 0 1 2     3 4 5 6 7 8 9 ",
"      : ; < = > ? @ A B C D E   ",
"        F 6 G H I J K L M N     ",
"          O P Q R S T U         ",
"          V W X Y Z [           ",
"        ] ^ _ ` a b c           ",
"      d e f g h i j k l         ",
"    m n o p q     r s t u       ",
"    v w x           y z {       ",
"    | }               ~  !!!    ",
"                      #!$!E     ",
"                                "};
