/* XPM */ 
static const char * encrypt_16x16x32b_xpm[] = {
"16 16 133 2",
"  	c None",
"! 	c black",
"# 	c #E1AA51",
"$ 	c #E4B15F",
"% 	c #E8BB6F",
"& 	c #EDC67D",
"' 	c #F3D386",
"( 	c #FADA66",
") 	c #FBC639",
"* 	c #AE956F",
"+ 	c #D79003",
", 	c #FFD816",
"- 	c #FFF177",
". 	c #FFF77E",
"0 	c #FFF271",
"1 	c #FFEE6A",
"2 	c #FFEC71",
"3 	c #FFEC79",
"4 	c #F7D25C",
"5 	c #F0B738",
"6 	c #E4AD54",
"7 	c #C08309",
"8 	c #FFDA16",
"9 	c #FEEA90",
": 	c #FEEA92",
"; 	c #FDE17C",
"< 	c #FDD850",
"= 	c #FDD646",
"> 	c #FEE47E",
"? 	c #E6AE3D",
"@ 	c #F2B435",
"A 	c #A36808",
"B 	c #FFDE2D",
"C 	c #FED32F",
"D 	c #FED729",
"E 	c #FFE648",
"F 	c #FFF678",
"G 	c #FFFEC7",
"H 	c white",
"I 	c #FEFAE7",
"J 	c #DDAB55",
"K 	c #FFF47C",
"L 	c #FFFBC1",
"M 	c #FFFCB8",
"N 	c #FFFE94",
"O 	c #FFFF97",
"P 	c #FFFDA9",
"Q 	c #FFFDDF",
"R 	c #F8C557",
"S 	c #FFE366",
"T 	c #FFFFCB",
"U 	c #FFFECB",
"V 	c #FFFE99",
"W 	c #FFFB8B",
"X 	c #FFF884",
"Y 	c #FFFAC2",
"Z 	c #FFFFF7",
"[ 	c #FFFFE9",
"] 	c #ECB045",
"^ 	c #EEBF42",
"_ 	c #FFFFCF",
"` 	c #FFFFD0",
"a 	c #FFFA9A",
"b 	c #FFF780",
"c 	c #FFF575",
"d 	c #FFF598",
"e 	c #FFFBD8",
"f 	c #F9CA5C",
"g 	c #9C896B",
"h 	c #C68D1A",
"i 	c #FFFFCA",
"j 	c #FFFCCB",
"k 	c #FFF8A1",
"l 	c #FFF479",
"m 	c #FFF16C",
"n 	c #FFEE69",
"o 	c #FFF4A7",
"p 	c #FFFEEB",
"q 	c #FFFFE6",
"r 	c #F1AD34",
"s 	c #EBAF49",
"t 	c #E0A033",
"u 	c #FFFFB3",
"v 	c #FFFCC4",
"w 	c #FFF8B1",
"x 	c #FFF38C",
"y 	c #FFED6F",
"z 	c #FFEB59",
"{ 	c #FFE950",
"| 	c #FFEB70",
"} 	c #FFF8B2",
"~ 	c #FCCB2C",
" !	c #C0A074",
"!!	c #DA981C",
"#!	c #FFF67D",
"$!	c #FFE658",
"%!	c #FFFC9E",
"&!	c #FFF9BF",
"'!	c #FFF8AD",
"(!	c #FFF48F",
")!	c #FFF078",
"*!	c #FFEE6C",
"+!	c #FFEF70",
",!	c #FFF480",
"-!	c #FACE28",
".!	c #FCBD5B",
"0!	c #E0A630",
"1!	c #FFF993",
"2!	c #FFEB64",
"3!	c #FFFFA1",
"4!	c #FFF9A0",
"5!	c #FFF28A",
"6!	c #FEEA78",
"7!	c #FBE068",
"8!	c #F8D758",
"9!	c #F5CB47",
":!	c #F2BF34",
";!	c #EAA414",
"<!	c #E68D00",
"=!	c #E0951C",
">!	c #8D5901",
"?!	c #F7A61A",
"@!	c #EF9A07",
"A!	c #ED9503",
"B!	c #EA8F00",
"C!	c #E88D00",
"D!	c #E58A00",
"E!	c #DE8700",
"F!	c #DA8400",
"G!	c #D28100",
"H!	c #C97B02",
"I!	c #B67203",
"J!	c #7B4C03",
"                                ",
"                                ",
"          # $ % & ' ( ) *       ",
"    + , - . 0 1 2 3 4 5 6       ",
"    7 8 9 : ; < = > ? @ A       ",
"      B C D E F G H I J         ",
"      K L M N O P Q H R         ",
"      S T U V W X Y Z [ ]       ",
"      ^ _ ` a b c d e H f g     ",
"      h i j k l m n o p q r     ",
"    s t u v w x y z { | } ~  !  ",
"  !!#!$!%!&!'!(!)!*!*!+!,!-!.!  ",
"  0!1!2!3!4!5!6!7!8!9!:!;!<!=!  ",
"  >!?!@!A!B!C!D!E!F!G!H!I!J!    ",
"                                ",
"                                "};