/* XPM */
static const char * exit_16x16x32b_xpm[] = {
"16 16 96 2",
"  	c None",
"! 	c black",
"# 	c #ECA2A3",
"$ 	c #E26763",
"% 	c #FF3C0D",
"& 	c #FF5627",
"' 	c #FF3700",
"( 	c #DD5956",
") 	c #B60700",
"* 	c #FF794F",
"+ 	c #FF9273",
", 	c #FC5F3E",
"- 	c #ED494B",
". 	c #E2504D",
"0 	c #E05554",
"1 	c #CC0000",
"2 	c #C1080A",
"3 	c #F69A92",
"4 	c #FFC2AE",
"5 	c #FFBBA6",
"6 	c #F5ABA0",
"7 	c #CC474B",
"8 	c #7F3437",
"9 	c #FEB1AD",
": 	c #9E6D6D",
"; 	c #FF5728",
"< 	c #F86E52",
"= 	c #FF6138",
"> 	c #FF2200",
"? 	c #FF6338",
"@ 	c #FFBDA7",
"A 	c #FFB99F",
"B 	c #FF5E2E",
"C 	c #F03129",
"D 	c #F04239",
"E 	c #C80000",
"F 	c #FF795A",
"G 	c #FF5A2F",
"H 	c #E44536",
"I 	c #EB4C3B",
"J 	c #EA4839",
"K 	c #DB0C09",
"L 	c #E30000",
"M 	c #5E0000",
"N 	c #CA0401",
"O 	c #FF5D30",
"P 	c #FF724C",
"Q 	c #E22918",
"R 	c #CE0B0C",
"S 	c #AC0000",
"T 	c #830000",
"U 	c #EB4125",
"V 	c #FF582C",
"W 	c #FF7A55",
"X 	c #FF8966",
"Y 	c #FFBBA8",
"Z 	c #D54C45",
"[ 	c #E73E30",
"] 	c #FF8360",
"^ 	c #FFC0AF",
"_ 	c #EA6E65",
"` 	c #FFBEAD",
"a 	c #FF9F83",
"b 	c #FFC1AF",
"c 	c #F25347",
"d 	c #E3220F",
"e 	c #FFB7A3",
"f 	c #FFAD94",
"g 	c #FFCBBA",
"h 	c #E0322D",
"i 	c #D10000",
"j 	c #B00000",
"k 	c #FF9584",
"l 	c #FF987B",
"m 	c #FF9779",
"n 	c #E72B19",
"o 	c #CC3027",
"p 	c #FFD7C5",
"q 	c #F79286",
"r 	c #DB0C0A",
"s 	c #D40000",
"t 	c #370000",
"u 	c #890000",
"v 	c #FFBEAE",
"w 	c #FFD4C1",
"x 	c #F53015",
"y 	c #E64B4C",
"z 	c #A10000",
"{ 	c #E70909",
"| 	c #CD0000",
"} 	c #7F0000",
"~ 	c #C92A26",
" !	c #EB352F",
"!!	c #D80000",
"#!	c #770000",
"$!	c #CA0000",
"                                ",
"                # $             ",
"              % & ' (           ",
"            ) * + , -           ",
"              . 0 1 2           ",
"          3 4 5 6 7 8 9 :       ",
"        ; < = > ? @ A B C       ",
"        D E F G H I J K L       ",
"        M N O P Q R S T         ",
"          U V W X Y Z           ",
"        [ ] ^ _ ` a b c         ",
"    d e f g h i j k l m n       ",
"    o p q r s t   u v w x y     ",
"    z { | }         ~  !!!#!    ",
"                      $!        ",
"                                "};
