/* XPM */
static const char * file_manager_16x16x32b_xpm[] = {
"16 16 159 2",
"  	c None",
"! 	c black",
"# 	c #398DBC",
"$ 	c #5FB6E7",
"% 	c #7DCAEF",
"& 	c #98E1FF",
"' 	c #ABEBFF",
"( 	c #A5F1FF",
") 	c #5ACCFF",
"* 	c #506E82",
"+ 	c #84D8FC",
", 	c #C3F6FF",
"- 	c white",
". 	c #EFFDFF",
"0 	c #A5D5F0",
"1 	c #98CAEC",
"2 	c #FF825E",
"3 	c #8EE2FF",
"4 	c #22AAFF",
"5 	c #3E627D",
"6 	c #93E8FF",
"7 	c #A2E0FF",
"8 	c #AFE1FA",
"9 	c #9ADBFD",
": 	c #9CDEFF",
"; 	c #9CDFFF",
"< 	c #80D5FF",
"= 	c #A2E5FF",
"> 	c #A6EAFF",
"? 	c #AAECFF",
"@ 	c #80DDFF",
"A 	c #22AAFC",
"B 	c #41657D",
"C 	c #389CD6",
"D 	c #83DCFF",
"E 	c #F0CE7F",
"F 	c #EDCE82",
"G 	c #A7DDF0",
"H 	c #D0F4FF",
"I 	c #C9F1FF",
"J 	c #87D8FF",
"K 	c #BBEEFF",
"L 	c #ACE9FF",
"M 	c #B2E9FF",
"N 	c #86DAFF",
"O 	c #21A7FB",
"P 	c #42657D",
"Q 	c #6AC3F0",
"R 	c #7FD8FF",
"S 	c #F6FFFF",
"T 	c #E1FAFF",
"U 	c #CDF4FF",
"V 	c #F4FFFF",
"W 	c #ECFFFF",
"X 	c #EEFFFF",
"Y 	c #E8FFFF",
"Z 	c #E0FDFF",
"[ 	c #81D9FF",
"] 	c #1EA5F8",
"^ 	c #43667D",
"_ 	c #92E0FF",
"` 	c #8BD9FF",
"a 	c #CAEFFF",
"b 	c #A4E1FF",
"c 	c #71CF97",
"d 	c #95DBBE",
"e 	c #70CF9A",
"f 	c #97DFFF",
"g 	c #ACE7FF",
"h 	c #A6E6FF",
"i 	c #B3E8FF",
"j 	c #7BD7FF",
"k 	c #1EA4F7",
"l 	c #45667D",
"m 	c #97E7FF",
"n 	c #94DBFF",
"o 	c #B9E7FF",
"p 	c #8CD8FA",
"q 	c #72CF90",
"r 	c #7AD295",
"s 	c #64C98D",
"t 	c #A9E6FF",
"u 	c #BBEFFF",
"v 	c #C4F0FF",
"w 	c #77D6FF",
"x 	c #1DA1F6",
"y 	c #3395CD",
"z 	c #8AE0FF",
"{ 	c #E9F8FF",
"| 	c #ABE4FF",
"} 	c #FEFFFF",
"~ 	c #C7F1FF",
" !	c #E6FFFF",
"!!	c #E9FFFF",
"#!	c #E0FFFF",
"$!	c #74D4FF",
"%!	c #1DA1F5",
"&!	c #44657C",
"'!	c #68BFE9",
"(!	c #8FDDFF",
")!	c #CBECFF",
"*!	c #BCE8FF",
"+!	c #8AD7FF",
",!	c #A6E3FF",
"-!	c #9DE0FF",
".!	c #71CFFE",
"0!	c #63BFF4",
"1!	c #6FC9F8",
"2!	c #7BD0F9",
"3!	c #B0E5FE",
"4!	c #74D3FF",
"5!	c #1B9FF3",
"6!	c #436278",
"7!	c #95E2FF",
"8!	c #89D9FF",
"9!	c #A0E1FF",
":!	c #B2E7FF",
";!	c #BEEBFF",
"<!	c #C7EDFF",
"=!	c #CCEFFF",
">!	c #C9EFFF",
"?!	c #BCE5FB",
"@!	c #B1DEF8",
"A!	c #A1D6F5",
"B!	c #B9E5FC",
"C!	c #7AD6FF",
"D!	c #3D5A6C",
"E!	c #139EF3",
"F!	c #16A1F8",
"G!	c #23ABFD",
"H!	c #33B4FF",
"I!	c #3EBAFF",
"J!	c #46BDFF",
"K!	c #50C1FF",
"L!	c #5CC6FF",
"M!	c #69CCFF",
"N!	c #77D1FF",
"O!	c #83D6FF",
"P!	c #91DDFF",
"Q!	c #73D2FF",
"R!	c #1FA1F4",
"S!	c #314654",
"T!	c #00365E",
"U!	c #00528D",
"V!	c #006AB2",
"W!	c #007ED1",
"X!	c #058EE6",
"Y!	c #109BF1",
"Z!	c #1BA4F6",
"[!	c #2AACFB",
"]!	c #37B5FE",
"^!	c #41BBFF",
"_!	c #29A8F7",
"`!	c #304453",
"a!	c #002A4A",
"b!	c #00477B",
"c!	c #0062A5",
"d!	c #007FD1",
"e!	c #0D3651",
"                                ",
"                                ",
"                # $ % & ' ( ) * ",
"      + , - - - - . 0 1 2 3 4 5 ",
"      6 7 8 9 : ; < = > ? @ A B ",
"    C D E F G H I J K L M N O P ",
"    Q R S T U V W M X Y Z [ ] ^ ",
"    _ ` a b c d e f g h i j k l ",
"    m n o p q r s t K u v w x ^ ",
"  y z { - | - } ~  !!!#!U $!%!&!",
"  '!(!)!*!+!,!-!.!0!1!2!3!4!5!6!",
"  7!8!9!:!;!<!=!>!?!@!A!B!C!5!D!",
"  E!F!G!H!I!J!K!L!M!N!O!P!Q!R!S!",
"        T!U!V!W!X!Y!Z![!]!^!_!`!",
"                      a!b!c!d!e!",
"                                "};
