/* XPM */ 
static const char * pen_yellow_16x16x32b_xpm[] = {
"16 16 75 1",
" 	c None",
"!	c black",
"#	c #DF1907",
"$	c #D3271A",
"%	c #E6F0F9",
"&	c #BCBBC0",
"'	c #CF1910",
"(	c #E31717",
")	c #F9DD8D",
"*	c #D2BC8D",
"+	c #A1ACB4",
",	c #A2AEB3",
"-	c #CB5253",
".	c #783535",
"0	c #FAE8AA",
"1	c #FFDB87",
"2	c #FFCE67",
"3	c #D6AE87",
"4	c #BCC5CC",
"5	c #B2BABC",
"6	c #FCEDB5",
"7	c #FFD880",
"8	c #FFD07E",
"9	c #FFC68F",
":	c #EE910E",
";	c #D19530",
"<	c #494B4E",
"=	c #FEF3BE",
">	c #FFD57B",
"?	c #FFD084",
"@	c #FFC792",
"A	c #E79110",
"B	c #E48F00",
"C	c #3E2600",
"D	c #DEA034",
"E	c #FFF3BC",
"F	c #FFD476",
"G	c #FFD18A",
"H	c #FFC186",
"I	c #E5900C",
"J	c #DD8C00",
"K	c #251701",
"L	c #E2A93C",
"M	c #FFEFB4",
"N	c #FFD170",
"O	c #FFD192",
"P	c #FDBB7A",
"Q	c #E48F05",
"R	c #D58501",
"S	c #E7A82C",
"T	c #FFDE83",
"U	c #FFD069",
"V	c #FFD095",
"W	c #FBB76F",
"X	c #E48D00",
"Y	c #C77E02",
"Z	c #FFE9BF",
"[	c #FFCF6A",
"]	c #FFC88C",
"^	c #F8B261",
"_	c #E58E00",
"`	c #B47201",
"a	c #F1B34A",
"b	c #FFF1CA",
"c	c #FFB96E",
"d	c #F6A544",
"e	c #E68F00",
"f	c #9E6402",
"g	c #D5AD6B",
"h	c #FCBC51",
"i	c #F2A01A",
"j	c #EB9301",
"k	c #875502",
"l	c #1E1B1E",
"m	c #503302",
"                ",
"                ",
"            #$  ",
"           %&'( ",
"          )*+,-.",
"         012345 ",
"        6789:;< ",
"       =>?@ABC  ",
"     DEFGHIJK   ",
"    LMNOPQR     ",
"   STUVWXY      ",
"   Z[]^_`       ",
"  abcdef        ",
"  ghijk         ",
"  lm            ",
"                "};