/* XPM */
static char const *powered_by_wxwidgets_88x31_xpm[] = {
/* width height num_colors chars_per_pixel */
"    88    31       64            2",
/* colors */
"`` c #060606",
"`. c #898a88",
"`# c #ccca3c",
"`a c #e81a18",
"`b c #dc829c",
"`c c #c2c4bc",
"`d c #484945",
"`e c #a8a9a6",
"`f c #fcfeab",
"`g c #4847f2",
"`h c #a7a7f1",
"`i c #656764",
"`j c #b2b3ab",
"`k c #fccfd1",
"`l c #2c2efc",
"`m c #e4e5e5",
"`n c #bc9a94",
"`o c #cfcece",
"`p c #8486e8",
"`q c #eeef42",
"`r c #282927",
"`s c #ccaba7",
"`t c #fcfed9",
"`u c #979895",
"`v c #d05a58",
"`w c #dadb9f",
"`x c #787876",
"`y c #b9b9b7",
"`z c #686afc",
"`A c #f7a9a9",
"`B c #585856",
"`C c #efed6c",
"`D c #d94344",
"`E c #f46e70",
"`F c #c9cb6f",
"`G c #f48e90",
"`H c #6442c4",
"`I c #393a38",
"`J c #fc5657",
"`K c #b8b8ee",
"`L c #fc3b39",
"`M c #191918",
"`N c #d9dad9",
"`O c #4c36c4",
"`P c #5858f8",
"`Q c #7879e8",
"`R c #6c5ccc",
"`S c #f12a29",
"`T c #f2babc",
"`U c #c49691",
"`V c #9998f1",
"`W c #bca29c",
"`X c #c4bab4",
"`Y c #fce2e4",
"`Z c #d7d92a",
"`0 c #f9fa7c",
"`1 c #3c3ce8",
"`2 c #fc7e7c",
"`3 c #fc9e9c",
"`4 c #c8cafc",
"`5 c #a4a6c0",
"`6 c #fbfdfb",
"`7 c #f74544",
"`8 c #ececed",
/* pixels */
"`i`i`i`i`i`i`i`i`i`i`i`i`i`i`i`i`i`i`i`i`i`i`i`i`i`i`i`i`i`i`i`i`i`i`i`i`i`i`i`i`i`i`i`i`i`i`i`i`i`i`i`i`i`i`i`i`i`i`i`i`i`i`i`i`i`i`i`i`i`i`i`i`i`i`i`i`i`i`i`i`i`i`i`i`i`i`i`i",
"`i`6`6`6`6`6`6`6`6`6`6`6`6`6`6`6`6`6`6`6`6`6`6`6`6`6`6`6`6`6`6`6`6`6`6`6`6`6`6`6`6`6`6`6`6`6`6`6`6`6`6`6`6`6`6`6`6`6`6`6`6`6`6`6`6`6`6`6`6`6`6`6`6`6`6`6`6`6`6`6`6`6`6`6`6`6`6`i",
"`i`6`c`c`c`c`c`c`c`c`c`c`c`c`c`c`c`c`c`c`c`c`c`c`c`c`c`c`c`c`c`c`c`c`c`c`c`c`c`c`c`c`c`c`c`c`c`c`c`c`c`c`c`c`c`c`c`c`c`c`c`c`c`c`c`c`c`c`c`c`c`c`c`c`c`c`c`c`c`c`c`c`c`c`c`c`6`i",
"`i`6`c`c`c`c`c`c`c`c`c`c`c`y`y`y`y`c`c`c`c`c`c`c`c`c`c`c`c`c`c`c`c`c`c`c`c`c`c`c`c`c`c`c`c`c`c`c`c`c`c`c`c`c`c`c`c`c`c`c`c`c`c`c`c`c`c`c`c`c`c`c`c`c`c`c`c`c`c`c`c`c`c`c`c`c`6`i",
"`i`6`c`c`c`c`c`c`c`c`c`j`K`K`K`h`V`p`c`c`c`c`c`c`c`c`c`c`c`c`c`c`c`c`c`c`c`c`c`c`c`c`c`c`c`c`c`c`c`c`c`c`c`c`c`c`c`c`c`c`c`c`c`c`c`c`c`c`c`c`c`c`c`c`c`c`c`c`c`c`c`c`c`c`c`c`6`i",
"`i`6`c`c`c`c`c`c`c`c`c`5`8`4`K`h`V`Q`5`c`c`c`c`c`c`c`c`c`x```````d`c`c`i`x`B`.`c`j`M`x`c`B`y`y`B`u`r`I`i`d`.```````d`c`e`r`I`i`d`j`I`I`x`d`.`c`c`c`i`I`.`I`u```e`c`x`.`c`c`c`6`i",
"`i`6`c`c`c`c`c`c`c`c`c`V`8`h`V`p`z`P`5`c`c`c`c`c`c`c`c`c`c`I`x`j```c`i`x`c`y`M`c`c`I`.`j`M`.`c`i`c`I`.`c`e`c`d`x`j```c`c`I`.`c`e`c`d`x`c`j`r`c`c`c`i`i`.`r`c`i`B`e`x`c`c`c`c`6`i",
"`i`6`c`c`c`c`c`c`c`c`c`Q`m`V`Q`P`Q`c`w`w`w`w`w`c`c`c`c`c`c`M`u`u`M`c`M`y`c`c`M`c`c`d`x`x`i`B`e`.`c`M`````c`c`r`u`u`d`c`c`M`````c`c`r`u`c`y`M`c`c`c`d`````.`c`e`r`i`c`c`c`c`c`6`i",
"`i`6`c`c`c`c`c`s`s`s`s`R`4`z`g`g`j`6`t`f`f`f`C`c`c`c`c`c`y```B```.`c`M`c`c`j`M`c`c`B`i`x`u`r`x`y`y```y`c`c`y```i`I`c`c`y```y`c`c`c```j`c`e`I`c`c`c`r`u`u`M`c`c`M`.`c`c`c`c`c`6`i",
"`i`6`c`c`c`c`X`T`Y`k`T`R`h`g`1`l`j`6`f`f`f`0`C`c`c`c`c`c`u`M`c`c`c`c`M`y`c`x`i`c`c`i`M`j`y```i`c`e`M`c`c`e`e`M`y`M`u`c`e`M`c`c`e`e`M`c`c`i`.`c`c`c```e`j`r`c`y```j`c`c`c`c`c`6`i",
"`i`6`c`c`c`c`X`T`Y`A`3`b`H`O`1`1`j`t`f`0`C`q`Z`c`c`c`c`y`B`r`e`c`c`c`.`B`x`i`y`c`c`x`B`c`c`r`u`c`i`M`i`B`.`B`r`e`.`r`j`i`M`i`B`.`i`M`x`x`x`c`c`c`.```x`B`u`c`x```u`c`c`c`c`c`6`i",
"`i`6`c`c`c`c`X`A`k`G`2`J`J`v`c`c`F`t`0`q`q`q`Z`c`c`y`c`c`c`c`c`c`c`c`y`c`c`y`c`y`y`y`y`y`c`c`c`c`c`c`c`y`c`c`c`c`c`c`c`y`c`y`c`c`c`c`c`c`y`y`y`c`c`c`y`c`c`c`c`c`c`y`c`c`c`c`6`i",
"`i`6`y`y`y`y`s`G`T`E`J`7`L`D`y`y`F`t`q`q`q`q`Z`c`y`y`y`y`y`y`y`y`y`y`y`y`y`y`y`y`y`y`j`j`y`y`y`y`y`y`y`y`y`y`y`y`y`y`y`y`y`y`y`y`y`y`y`y`y`y`y`y`y`y`y`y`y`y`y`y`y`y`y`y`y`y`6`i",
"`i`6`y`y`y`y`s`E`3`7`L`L`S`D`y`y`F`Z`Z`Z`Z`Z`#`y`y`y`y`y`y`y`y`y`y`y`y`y`y`y`y`y`j`e`e`e`e`y`y`y`y`y`y`y`y`y`y`y`y`y`y`y`y`y`y`y`y`y`y`y`y`y`y`y`y`y`y`y`y`y`y`y`y`y`y`y`y`y`6`i",
"`i`6`y`y`y`y`y`D`7`S`S`a`a`v`y`y`y`y`y`y`y`y`y`y`y`j`j`e`e`e`e`e`e`e`e`e`e`e`e`e`e`u`N`N`u`j`y`y`y`j`e`e`e`e`j`y`y`y`y`y`y`y`y`y`y`y`y`y`y`y`y`y`y`y`j`j`j`y`y`y`y`y`y`y`y`y`6`i",
"`i`6`y`y`y`y`y`y`n`U`U`U`W`y`y`y`y`y`y`y`y`y`y`y`j`e`u`.`.`.`u`.`.`.`.`u`u`.`.`u`u`j`6`6`u`e`y`y`j`e`u`u`c`e`j`y`y`y`y`y`y`y`y`y`y`y`y`y`y`y`y`y`j`e`e`e`e`j`y`y`y`y`y`y`y`y`6`i",
"`i`6`y`y`y`j`j`j`j`j`j`j`j`j`j`j`j`j`j`j`j`j`j`j`e`u`8`6`6`6`e`8`6`6`6`j`N`6`6`8`.`u`6`c`u`e`j`e`u`u`6`6`6`u`e`j`j`j`e`e`e`e`j`j`y`j`j`e`e`e`j`j`e`u`e`6`u`e`j`j`e`e`e`j`y`y`6`i",
"`i`6`y`y`j`e`u`u`u`e`u`u`u`u`u`u`e`e`u`u`u`u`u`u`u`.`u`6`6`e`i`.`6`6`e`x`x`6`o`.`.`x`x`x`u`e`u`u`.`x`e`6`8`.`e`e`e`u`.`.`.`.`u`e`e`e`u`u`.`.`u`u`u`.`m`8`x`.`u`u`.`.`u`e`e`y`6`i",
"`i`6`y`j`e`y`o`8`c`.`e`6`m`x`8`o`.`u`c`8`o`x`u`8`8`.`x`8`6`u`i`x`6`6`u`i`u`6`.`.`e`o`8`c`.`.`u`N`6`8`N`6`o`.`u`u`u`o`6`6`N`6`m`.`u`.`y`8`6`8`y`.`e`6`6`6`6`o`x`j`8`6`8`j`e`j`6`i",
"`i`6`y`j`u`c`6`6`u`x`j`6`c`x`6`6`x`e`6`6`6`.`6`m`c`.`x`N`6`j`B`o`6`6`e`i`N`y`.`.`y`6`6`e`x`.`6`6`u`.`8`6`j`.`u`.`8`6`u`x`N`6`c`x`.`8`6`.`i`6`6`.`.`o`6`y`.`.`e`6`6`i`y`6`u`e`6`i",
"`i`6`j`j`u`x`6`6`x`i`o`6`e`i`j`6`x`x`x`6`6`6`u`.`u`u`.`c`6`o`i`8`o`6`c`x`6`.`u`u`x`6`6`.`i`N`6`e`i`B`6`6`u`.`.`c`6`y`i`i`o`6`e`i`o`6`u`i`y`6`8`x`i`m`6`u`x`x`o`6`6`e`x`x`u`e`6`i",
"`i`6`j`j`u`.`6`6`i`i`8`6`.`i`e`N`.`.`i`8`6`o`i`.`e`e`.`e`6`8`y`e`e`6`N`o`y`u`e`u`.`6`6`i`x`6`6`x`x`x`6`6`x`.`x`6`6`.`i`i`6`6`.`i`6`6`6`6`N`j`.`.`x`6`6`x`.`.`.`8`6`6`6`y`u`e`6`i",
"`i`6`j`e`u`e`6`N`B`i`6`6`i`i`N`e`x`x`e`8`6`6`x`.`u`e`u`u`6`6`8`i`.`6`6`8`.`u`e`u`u`6`m`B`x`6`6`B`i`j`6`6`i`.`x`6`6`x`i`u`6`6`x`x`6`6`d`B`i`.`.`.`.`6`6`i`x`.`.`B`x`j`6`6`.`e`6`i",
"`i`6`j`e`u`y`6`6`e`o`6`6`o`o`N`x`y`8`6`x`m`6`8`N`c`e`u`.`6`6`e`x`.`6`6`e`.`e`e`u`j`6`8`j`u`m`6`e`e`6`6`6`e`e`x`o`6`c`e`6`6`8`i`x`m`6`y`u`y`6`c`.`e`6`6`e`8`N`6`c`i`e`6`o`u`e`6`i",
"`i`6`j`j`e`u`N`6`m`e`o`6`8`y`.`.`N`8`e`x`.`m`6`o`u`e`e`.`6`6`.`.`.`6`8`.`u`e`j`e`u`m`6`N`u`.`m`6`N`.`m`6`N`u`x`x`o`6`N`j`6`o`x`.`.`o`6`6`N`e`u`u`u`m`6`m`e`.`o`6`6`8`y`.`e`j`6`i",
"`i`6`j`j`e`u`.`.`.`.`.`.`.`u`u`u`u`u`u`u`u`.`.`u`e`e`e`u`u`u`u`e`u`u`u`u`e`j`j`e`u`.`.`.`u`u`.`.`.`.`.`.`.`.`e`o`i`B`B`m`6`e`u`e`u`u`.`.`u`u`e`e`u`.`.`.`u`u`u`.`.`.`u`e`e`j`6`i",
"`i`6`j`j`j`e`e`e`e`e`e`e`e`e`e`e`e`e`e`e`e`e`e`e`e`j`j`e`e`e`e`e`e`e`e`e`j`j`j`j`e`e`e`e`e`e`e`e`e`e`e`e`e`u`N`6`y`x`c`6`N`.`u`e`e`e`e`e`e`e`j`j`e`e`e`e`e`e`e`e`e`e`e`e`j`j`6`i",
"`i`6`j`j`j`j`j`j`j`j`j`j`j`j`j`j`j`j`j`j`j`j`j`j`j`j`j`j`j`j`j`j`j`j`j`j`j`j`j`j`j`j`j`j`j`j`j`j`j`j`j`j`e`u`u`N`6`6`m`j`.`u`e`j`j`j`j`j`j`j`j`j`j`j`j`j`j`j`j`j`j`j`j`j`j`j`6`i",
"`i`6`j`j`j`j`j`j`j`j`j`j`j`j`j`j`j`j`j`j`j`j`j`j`j`j`j`j`j`j`j`j`j`j`j`j`j`j`j`j`j`j`j`j`j`j`j`j`j`j`j`j`e`e`u`.`.`.`.`u`u`e`e`j`j`j`j`j`j`j`j`j`j`j`j`j`j`j`j`j`j`j`j`j`j`j`6`i",
"`i`6`6`6`6`6`6`6`6`6`6`6`6`6`6`6`6`6`6`6`6`6`6`6`6`6`6`6`6`6`6`6`6`6`6`6`6`6`6`6`6`6`6`6`6`6`6`6`6`6`6`6`6`6`6`8`8`8`8`8`6`6`6`6`6`6`6`6`6`6`6`6`6`6`6`6`6`6`6`6`6`6`6`6`6`6`6`i",
"`i`i`i`i`i`i`i`i`i`i`i`i`i`i`i`i`i`i`i`i`i`i`i`i`i`i`i`i`i`i`i`i`i`i`i`i`i`i`i`i`i`i`i`i`i`i`i`i`i`i`i`i`i`i`i`i`i`i`i`i`i`i`i`i`i`i`i`i`i`i`i`i`i`i`i`i`i`i`i`i`i`i`i`i`i`i`i`i"
};
