/* XPM */
static const char * public_16x16x32b_xpm[] = {
"16 16 103 2",
"  	c None",
"! 	c black",
"# 	c #FFF7B7",
"$ 	c #FFFFB1",
"% 	c #E7C323",
"& 	c #FFFAB3",
"' 	c #FFF37D",
"( 	c #FFE95F",
") 	c #FFE13B",
"* 	c #FFF168",
"+ 	c #FFE978",
", 	c #FFF289",
"- 	c #FFE259",
". 	c #FFD308",
"0 	c #FFE000",
"1 	c #F6C919",
"2 	c #FFFFBB",
"3 	c #FFE155",
"4 	c #ECCE5E",
"5 	c #FFFFB9",
"6 	c #FFEA58",
"7 	c #DCB51D",
"8 	c #FFFE98",
"9 	c #F5BA1C",
": 	c #FEE3A7",
"; 	c #FECB62",
"< 	c #E19A1E",
"= 	c #FFF9CD",
"> 	c #FFC80E",
"? 	c #998974",
"@ 	c #775200",
"A 	c #FFCE2E",
"B 	c #FFFAE3",
"C 	c #FFFFF7",
"D 	c #FFF6BF",
"E 	c #FFFFF6",
"F 	c #FFF2B9",
"G 	c #F9B200",
"H 	c #CDB087",
"I 	c #E69B00",
"J 	c #FEB900",
"K 	c #FFD561",
"L 	c #F5EB8E",
"M 	c #E2E0BC",
"N 	c #EFB739",
"O 	c #FBC227",
"P 	c #F9B000",
"Q 	c #BDA076",
"R 	c #FAAE00",
"S 	c #F7AD00",
"T 	c #FFE646",
"U 	c #978C4C",
"V 	c #6F6E55",
"W 	c #FFE757",
"X 	c #EDA000",
"Y 	c #FCB200",
"Z 	c #FBB123",
"[ 	c #DA8C01",
"] 	c #F8AB0D",
"^ 	c #F5AD14",
"_ 	c #FFEB58",
"` 	c #A79A56",
"a 	c #C3B45F",
"b 	c #FFF156",
"c 	c #E6A518",
"d 	c #F6A800",
"e 	c #F6A610",
"f 	c #92836E",
"g 	c #CB8001",
"h 	c #FDC460",
"i 	c #F7C978",
"j 	c #FFD058",
"k 	c #CDBE6D",
"l 	c #EACF56",
"m 	c #EDB02B",
"n 	c #F6BE58",
"o 	c #F7A80F",
"p 	c #EFA321",
"q 	c #6F5C3F",
"r 	c #FFAA22",
"s 	c #FAC97D",
"t 	c #F9CE8D",
"u 	c #FFD348",
"v 	c #EDAE3A",
"w 	c #FACF8A",
"x 	c #F7C164",
"y 	c #EF9802",
"z 	c #F4B043",
"{ 	c #A86800",
"| 	c #F99D14",
"} 	c #FAB552",
"~ 	c #F8C070",
" !	c #F7BB66",
"!!	c #F4AB3B",
"#!	c #ED9407",
"$!	c #E79103",
"%!	c #9E6B17",
"&!	c #D68501",
"'!	c #EF9504",
"(!	c #F19501",
")!	c #EE9501",
"*!	c #E49004",
"+!	c #7D4E02",
"                                ",
"            # $ %               ",
"          & ' ( ) *             ",
"        + , - . 0 1             ",
"        2 3 4                   ",
"        5 6 7                   ",
"        8 9 : ;   < = > ?       ",
"        @ A B C D E F G H       ",
"        I J K L M N O P Q       ",
"        R S T U V W X Y Z       ",
"      [ ] ^ _ ` a b c d e f     ",
"      g h i j k l m n o p q     ",
"        r s t u v w x y z       ",
"        { | } ~  !!!#!$!%!      ",
"            &!'!(!)!*!+!        ",
"                                "};
