/* XPM */
static const char * refresh_16x16x32b_xpm[] = {
"16 16 111 2",
"  	c None",
"! 	c black",
"# 	c #C3E9FF",
"$ 	c #6C8FA5",
"% 	c #9BC8E3",
"& 	c #D6F3FF",
"' 	c #D5F6FF",
"( 	c #B9EBFF",
") 	c #3DA1E2",
"* 	c #1095ED",
"+ 	c #77CCFF",
", 	c #BFE9FF",
"- 	c #73CEFF",
". 	c #7CD1FF",
"0 	c #82D0FF",
"1 	c #75CBFF",
"2 	c #5DC6FF",
"3 	c #4EC2FF",
"4 	c #597586",
"5 	c #11A3FF",
"6 	c #19A6FF",
"7 	c #64C4FF",
"8 	c #259CE6",
"9 	c #0087DF",
": 	c #0086E3",
"; 	c #0089E7",
"< 	c #008BE7",
"= 	c #018FEB",
"> 	c #22A5F8",
"? 	c #43B1F9",
"@ 	c #96D9FF",
"A 	c #B1E4FF",
"B 	c #BFECFF",
"C 	c #6DBDEF",
"D 	c #0D5B8E",
"E 	c #001E34",
"F 	c #0077C9",
"G 	c #65A4CC",
"H 	c #0080D4",
"I 	c #008BE3",
"J 	c #0A95ED",
"K 	c #159BEF",
"L 	c #179CF2",
"M 	c #586874",
"N 	c #0787D9",
"O 	c #73B0D6",
"P 	c #005388",
"Q 	c #7FD9FF",
"R 	c #BFE7FF",
"S 	c #AFDDFA",
"T 	c #95C7E8",
"U 	c #59A7D8",
"V 	c #148EDD",
"W 	c #527389",
"X 	c #41B4FD",
"Y 	c #77858F",
"Z 	c #53B8F6",
"[ 	c #9FDEFF",
"] 	c #95D9FF",
"^ 	c #94D7FF",
"_ 	c #5CC3FF",
"` 	c #17A3FE",
"a 	c #60BAF5",
"b 	c #2298E2",
"c 	c #9ADFFF",
"d 	c #93C0DD",
"e 	c #82BDE3",
"f 	c #74B9E7",
"g 	c #41A0DD",
"h 	c #21A8FB",
"i 	c #3BB5FF",
"j 	c #12A4FF",
"k 	c #0AA0FF",
"l 	c #29ACFF",
"m 	c #1496EA",
"n 	c #2C6183",
"o 	c #5ECAFF",
"p 	c #78D0FF",
"q 	c #96DAFF",
"r 	c #91D9FF",
"s 	c #65C7FF",
"t 	c #55C0FF",
"u 	c #78CBFF",
"v 	c #55BCFF",
"w 	c #46B6FF",
"x 	c #27A5FA",
"y 	c #3CA6ED",
"z 	c #026AAD",
"{ 	c #74CEFF",
"| 	c #9DDBFF",
"} 	c #A4DEFF",
"~ 	c #A1DBFF",
" !	c #68BCF2",
"!!	c #9CDAFF",
"#!	c #8BD2FF",
"$!	c #0E93EA",
"%!	c #397DA9",
"&!	c #004171",
"'!	c #058CE2",
"(!	c #22A3F7",
")!	c #169DF4",
"*!	c #008FED",
"+!	c #0077CE",
",!	c #7FCFFF",
"-!	c #5BBDFE",
".!	c #30A4EE",
"0!	c #2585C4",
"1!	c #20A0F4",
"2!	c #3E8EC2",
"3!	c #16A2FC",
"4!	c #162F3F",
"                                ",
"                                ",
"        # $ % & ' ( )           ",
"      * + , - . 0 1 2 3 4       ",
"      5 6 7 8 9 : ; < = >       ",
"    ? @ A B C D E       F G     ",
"    H I J K L M           N     ",
"    O         P Q R S T U V W   ",
"    X Y         Z [ ] ^ _ ` a   ",
"    b c d e f g h i j k l m n   ",
"      o p q r s t u v w x y     ",
"      z { [ | } ~  !!!#!$!%!    ",
"        &!'!(!)!*!+!,!-!.!      ",
"                    0!1!2!      ",
"                      3!4!      ",
"                                "};
