/* XPM */
static const char * retreive_16x16x32b_xpm[] = {
"16 16 145 2",
"  	c None",
"! 	c black",
"# 	c #2EB02D",
"$ 	c #B7E8B0",
"% 	c #DEFCD7",
"& 	c #83EC6E",
"' 	c #8D9569",
"( 	c #FFA632",
") 	c #76D34D",
"* 	c #9FF96E",
"+ 	c #9BF76B",
", 	c #67D755",
"- 	c #BFBE61",
". 	c #604B3E",
"0 	c #DBA340",
"1 	c #E7B357",
"2 	c #F4C062",
"3 	c #FFC96A",
"4 	c #FFF5E6",
"5 	c #6CDA51",
"6 	c #7EE649",
"7 	c #7DE446",
"8 	c #59C752",
"9 	c #D6B154",
": 	c #C5834F",
"; 	c #ECAF3F",
"< 	c #FED653",
"= 	c #FFE189",
"> 	c #FFE69C",
"? 	c #6CAE37",
"@ 	c #62B032",
"A 	c #6AD23C",
"B 	c #6CD537",
"C 	c #6DD437",
"D 	c #5DC44F",
"E 	c #70BD4E",
"F 	c #68BB3B",
"G 	c #F9BF42",
"H 	c #FFF238",
"I 	c #FFF08F",
"J 	c #FFEF9E",
"K 	c #C9D261",
"L 	c #6CCF5A",
"M 	c #8CD967",
"N 	c #74CF46",
"O 	c #91DB69",
"P 	c #8BD962",
"Q 	c #1CAB1C",
"R 	c #0DAD10",
"S 	c #FFCC42",
"T 	c #FFED28",
"U 	c #FFDD1A",
"V 	c #FFD820",
"W 	c #FFCF1F",
"X 	c #71B11A",
"Y 	c #B5ECA8",
"Z 	c #C0ECA7",
"[ 	c #B2E79B",
"] 	c #0BA213",
"^ 	c #039600",
"_ 	c #F3AE47",
"` 	c #FFDA44",
"a 	c #FFE81C",
"b 	c #FFDA0B",
"c 	c #FFD200",
"d 	c #FFC800",
"e 	c #FBBB00",
"f 	c #6DC85E",
"g 	c #B1EDA5",
"h 	c #009C04",
"i 	c #1C9500",
"j 	c #FD9D31",
"k 	c #FFB358",
"l 	c #F0A939",
"m 	c #FEE94C",
"n 	c #FFE61E",
"o 	c #FFDA0F",
"p 	c #FFCF00",
"q 	c #FFC602",
"r 	c #FFBD08",
"s 	c #BAAD09",
"t 	c #009500",
"u 	c #3D9902",
"v 	c #FFA027",
"w 	c #FFA838",
"x 	c #FFB459",
"y 	c #F7B83D",
"z 	c #FFF865",
"{ 	c #FFED6E",
"| 	c #FFE873",
"} 	c #FFE269",
"~ 	c #FFDB67",
" !	c #FFD567",
"!!	c #FFD067",
"#!	c #E1C45D",
"$!	c #FFBC54",
"%!	c #FFA331",
"&!	c #FDB740",
"'!	c #FFB45D",
"(!	c #FBC844",
")!	c #FFFA82",
"*!	c #FFF08B",
"+!	c #FFEB88",
",!	c #FFE687",
"-!	c #FFE48B",
".!	c #FFE08F",
"0!	c #FFDC94",
"1!	c #FFD997",
"2!	c #FFD18D",
"3!	c #FFAF52",
"4!	c #FDC94F",
"5!	c #FFB35D",
"6!	c #FFD43B",
"7!	c #FFEE59",
"8!	c #FFEC5C",
"9!	c #FFEA5F",
":!	c #FFE762",
";!	c #FFE368",
"<!	c #FFDD6E",
"=!	c #FFD674",
">!	c #FFD078",
"?!	c #FFC779",
"@!	c #FFAF57",
"A!	c #FED759",
"B!	c #FFB15D",
"C!	c #96520B",
"D!	c #D67810",
"E!	c #F58D13",
"F!	c #FF9E17",
"G!	c #FFA91C",
"H!	c #FFB222",
"I!	c #FFBB2B",
"J!	c #FFC334",
"K!	c #FFCE3F",
"L!	c #FFD349",
"M!	c #FED74F",
"N!	c #FED85D",
"O!	c #FEB165",
"P!	c #693708",
"Q!	c #A3580D",
"R!	c #D27111",
"S!	c #F38414",
"T!	c #FF8E17",
"U!	c #FF9417",
"V!	c #FFB055",
"                                ",
"                                ",
"                  # $ % & '     ",
"                ( ) * + , - .   ",
"        0 1 2 3 4 5 6 7 8 9 :   ",
"      ; < = > ? @ A B C D E F   ",
"      G H I J K L M N O P Q R   ",
"      S T U V W X Y Z [ ] ^ _   ",
"      ` a b c d e f g h i j k   ",
"    l m n o p q r s t u v w x   ",
"    y z { | } ~  !!!#!$!%!&!'!  ",
"    (!)!*!+!,!-!.!0!1!2!3!4!5!  ",
"    6!7!8!9!:!;!<!=!>!?!@!A!B!  ",
"    C!D!E!F!G!H!I!J!K!L!M!N!O!  ",
"                P!Q!R!S!T!U!V!  ",
"                                "};
