/* XPM */
static const char * secret_16x16x32b_xpm[] = {
"16 16 110 2",
"  	c None",
"! 	c black",
"# 	c #F6E392",
"$ 	c #FFFFE5",
"% 	c #FFFFE4",
"& 	c #FFFFDB",
"' 	c #F9DE66",
"( 	c #FFF586",
") 	c #FFFEA5",
"* 	c #FFED7C",
"+ 	c #FFED81",
", 	c #FFFC96",
"- 	c #FFFF85",
". 	c #CFB85B",
"0 	c #EBC61E",
"1 	c #FFF380",
"2 	c #FFE561",
"3 	c #FFE674",
"4 	c #D0B966",
"5 	c #FFF794",
"6 	c #FFF37F",
"7 	c #FFDF56",
"8 	c #FAD842",
"9 	c #FADA5D",
": 	c #FFE968",
"; 	c #403C1E",
"< 	c #FBCF52",
"= 	c #F3BE37",
"> 	c #ECCD5D",
"? 	c #F7C029",
"@ 	c #F9ECCE",
"A 	c #F1BB55",
"B 	c #8D651C",
"C 	c #D5A147",
"D 	c #FFFFFC",
"E 	c #FEC513",
"F 	c #C9A161",
"G 	c #FFD23A",
"H 	c #FFF6D8",
"I 	c #FFFFF8",
"J 	c #FFF8BC",
"K 	c #FFF3D6",
"L 	c #FFE99C",
"M 	c #F9B200",
"N 	c #B39467",
"O 	c #EFA400",
"P 	c #FCB500",
"Q 	c #FFD251",
"R 	c #D5CC7C",
"S 	c #B3B29C",
"T 	c #EFB931",
"U 	c #F9B811",
"V 	c #FDB500",
"W 	c #CF9D47",
"X 	c #D98D03",
"Y 	c #F9AD00",
"Z 	c #F8B204",
"[ 	c #FFEE4C",
"] 	c #A1954B",
"^ 	c #9D9456",
"_ 	c #FFF15B",
"` 	c #E89F05",
"a 	c #FBAF00",
"b 	c #FFAF08",
"c 	c #E99700",
"d 	c #F8B123",
"e 	c #F5B023",
"f 	c #FFE95A",
"g 	c #807C5B",
"h 	c #C6BA73",
"i 	c #FFE64F",
"j 	c #E9A51A",
"k 	c #F6A700",
"l 	c #F6A305",
"m 	c #928166",
"n 	c #DA8A02",
"o 	c #FCC86A",
"p 	c #F9CD85",
"q 	c #FECF66",
"r 	c #F0D968",
"s 	c #F6CB33",
"t 	c #ECB042",
"u 	c #F9C76F",
"v 	c #F7AB1B",
"w 	c #F1A21B",
"x 	c #604E32",
"y 	c #FDA51A",
"z 	c #FAC571",
"{ 	c #F9CC8C",
"| 	c #FBCE5D",
"} 	c #F0BA62",
"~ 	c #FACD88",
" !	c #F7B953",
"!!	c #ED9500",
"#!	c #EFAB3A",
"$!	c #9C6100",
"%!	c #F49808",
"&!	c #F8A938",
"'!	c #F7B355",
"(!	c #F5AC46",
")!	c #F19C1C",
"*!	c #E99100",
"+!	c #EB9303",
",!	c #62410A",
"-!	c #B67300",
".!	c #DE8A01",
"0!	c #EC9402",
"1!	c #E79204",
"2!	c #C07A04",
"3!	c #372201",
"                                ",
"                                ",
"              # $ % & '         ",
"            ( ) * + , - .       ",
"          0 1 2 3 4 5 6 7       ",
"          8 9 : ;   < = >       ",
"          ? @ A B C D E F       ",
"          G H I J K L M N       ",
"        O P Q R S T U V W       ",
"      X Y Z [ ] ^ _ ` a b       ",
"      c d e f g h i j k l m     ",
"      n o p q r s t u v w x     ",
"        y z { | } ~  !!!#!      ",
"        $!%!&!'!(!)!*!+!,!      ",
"            -!.!0!1!2!3!        ",
"                                "};
