/* XPM */
static const char * send_16x16x32b_xpm[] = {
"16 16 143 2",
"  	c None",
"! 	c black",
"# 	c #D9F9DA",
"$ 	c #596D39",
"% 	c #FB9D46",
"& 	c #FFC153",
"' 	c #99C349",
"( 	c #C6FEB3",
") 	c #D3FFB9",
"* 	c #86E474",
"+ 	c #C5B952",
", 	c #EFA53C",
"- 	c #EFBA4D",
". 	c #F8C872",
"0 	c #FFD679",
"1 	c #FFD98A",
"2 	c #83D783",
"3 	c #74E047",
"4 	c #7AE348",
"5 	c #7AE144",
"6 	c #7CE249",
"7 	c #82DF63",
"8 	c #64945C",
"9 	c #F5BC44",
": 	c #FEE25B",
"; 	c #FEE896",
"< 	c #FFEDA9",
"= 	c #9FCC70",
"> 	c #009400",
"? 	c #6ACD4A",
"@ 	c #6CD139",
"A 	c #73D33F",
"B 	c #5DC449",
"C 	c #009B00",
"D 	c #00AA00",
"E 	c #2A5F2E",
"F 	c #FFCA40",
"G 	c #FFF035",
"H 	c #FFEB84",
"I 	c #FFE883",
"J 	c #FFE476",
"K 	c #CFC751",
"L 	c #6FD14B",
"M 	c #67CC34",
"N 	c #76D144",
"O 	c #4FBE47",
"P 	c #8FB452",
"Q 	c #C1A539",
"R 	c #FFD442",
"S 	c #FFE91D",
"T 	c #FFDC16",
"U 	c #FFD414",
"V 	c #FFCB12",
"W 	c #A9B71D",
"X 	c #8DE270",
"Y 	c #8DDC67",
"Z 	c #95E06A",
"[ 	c #3EBA42",
"] 	c #D1B35A",
"^ 	c #FFA953",
"_ 	c #ECA236",
"` 	c #FFE547",
"a 	c #FFE617",
"b 	c #FFDA09",
"c 	c #FFCF00",
"d 	c #FFC700",
"e 	c #7EBE34",
"f 	c #C8FEBB",
"g 	c #D7FDC0",
"h 	c #D6FFB7",
"i 	c #41BC4D",
"j 	c #DEB156",
"k 	c #FFAB57",
"l 	c #F5B53F",
"m 	c #FFF14D",
"n 	c #FFE422",
"o 	c #FFD812",
"p 	c #FFCE02",
"q 	c #FFC606",
"r 	c #7BA700",
"s 	c #069700",
"t 	c #019C05",
"u 	c #0BA615",
"v 	c #00A115",
"w 	c #DAB94C",
"x 	c #FFAF5D",
"y 	c #FCC13D",
"z 	c #FFF869",
"{ 	c #FFED7B",
"| 	c #FFEA7F",
"} 	c #FFDE77",
"~ 	c #FFD976",
" !	c #FFD575",
"!!	c #FFCD72",
"#!	c #F9B951",
"$!	c #D09E25",
"%!	c #FFBE48",
"&!	c #FDAF64",
"'!	c #FCD34E",
"(!	c #FFF77F",
")!	c #FFEE87",
"*!	c #FFE585",
"+!	c #FFE28A",
",!	c #FFDE8E",
"-!	c #FFDC93",
".!	c #FFD997",
"0!	c #FFCF8B",
"1!	c #FFAD4E",
"2!	c #FFCD54",
"3!	c #F9AF66",
"4!	c #F08F20",
"5!	c #FFD83B",
"6!	c #FFE850",
"7!	c #FFE756",
"8!	c #FFE85A",
"9!	c #FFE75E",
":!	c #FFE465",
";!	c #FFDE6A",
"<!	c #FFD96F",
"=!	c #FFD072",
">!	c #FFC771",
"?!	c #FFAF51",
"@!	c #FFD55B",
"A!	c #F1AB65",
"B!	c #773F08",
"C!	c #B4620D",
"D!	c #DE7C0F",
"E!	c #F98F13",
"F!	c #FF9D17",
"G!	c #FFA81B",
"H!	c #FFB022",
"I!	c #FFB729",
"J!	c #FFC235",
"K!	c #FFC940",
"L!	c #FFD14A",
"M!	c #FFCA57",
"N!	c #E7A96B",
"O!	c #7A400B",
"P!	c #B0600F",
"Q!	c #DC7813",
"R!	c #F08414",
"S!	c #FF8E15",
"T!	c #E89C4E",
"                                ",
"                                ",
"                      # $ %     ",
"                & ' ( ) * +     ",
"      , - . 0 1 2 3 4 5 6 7 8   ",
"      9 : ; < = > ? @ A B C D E ",
"      F G H I J K L M N O P Q   ",
"      R S T U V W X Y Z [ ] ^   ",
"    _ ` a b c d e f g h i j k   ",
"    l m n o p q r s t u v w x   ",
"    y z { | J } ~  !!!#!$!%!&!  ",
"    '!(!)!H *!+!,!-!.!0!1!2!3!  ",
"  4!5!6!7!8!9!:!;!<!=!>!?!@!A!  ",
"    B!C!D!E!F!G!H!I!J!K!L!M!N!  ",
"                  O!P!Q!R!S!T!  ",
"                                "};
