/* XPM */
static const char * settings_16x16x32b_xpm[] = {
"16 16 118 2",
"  	c None",
"! 	c black",
"# 	c #878C9C",
"$ 	c #737A8B",
"% 	c #B5BBC3",
"& 	c #7C8192",
"' 	c #686B76",
"( 	c #B3B9C4",
") 	c #C6CAD0",
"* 	c #6E7487",
"+ 	c #959EAB",
", 	c #878D9B",
"- 	c #777B8D",
". 	c #A2A8B4",
"0 	c #AFB4C1",
"1 	c #BBC2CB",
"2 	c #8E9BAA",
"3 	c #A8B0BC",
"4 	c #798297",
"5 	c #8A96A5",
"6 	c #A4AAB6",
"7 	c #A2A6B2",
"8 	c #98A0AB",
"9 	c #989DAA",
": 	c #4C4E58",
"; 	c #CBD0D9",
"< 	c #C4CCD4",
"= 	c #A0A3AB",
"> 	c #9D7634",
"? 	c #C1B5A2",
"@ 	c #A8B2C4",
"A 	c #ACB5BF",
"B 	c #A9B0BC",
"C 	c #798093",
"D 	c #51545C",
"E 	c #2E3446",
"F 	c #7A839A",
"G 	c #B4C0D3",
"H 	c #BBBDBF",
"I 	c #FFCC28",
"J 	c #AAA08D",
"K 	c #808594",
"L 	c #717687",
"M 	c #676D7E",
"N 	c #C78E00",
"O 	c #969281",
"P 	c #B5BAD2",
"Q 	c #889D99",
"R 	c #A0D2F1",
"S 	c #6FABD4",
"T 	c #38373E",
"U 	c #ECA504",
"V 	c #FFDB0E",
"W 	c #FFD300",
"X 	c #7E8D8E",
"Y 	c #36ACF2",
"Z 	c #B0EBFF",
"[ 	c #B3EAFF",
"] 	c #3888BA",
"^ 	c #E39E04",
"_ 	c #FFD511",
"` 	c #FFD103",
"a 	c #FFE44F",
"b 	c #1C9FEF",
"c 	c #54C8FF",
"d 	c #4EC1FF",
"e 	c #71CFFF",
"f 	c #A9E7FF",
"g 	c #3C92C8",
"h 	c #E39B03",
"i 	c #FFD200",
"j 	c #FFD000",
"k 	c #FFE356",
"l 	c #FDB718",
"m 	c #698471",
"n 	c #65C5FF",
"o 	c #86D5FF",
"p 	c #3DB9FF",
"q 	c #5FC7FF",
"r 	c #85DAFF",
"s 	c #3097D5",
"t 	c #F3BF22",
"u 	c #FDE067",
"v 	c #F5BF2A",
"w 	c #E89108",
"x 	c #945600",
"y 	c #003D71",
"z 	c #65C6FF",
"{ 	c #80D2FF",
"| 	c #36B3FF",
"} 	c #3EBAFF",
"~ 	c #24AEFF",
" !	c #7EADCE",
"!!	c #D29002",
"#!	c #FFE94D",
"$!	c #FCE889",
"%!	c #F7CC3E",
"&!	c #E5910A",
"'!	c #A56A0C",
"(!	c #004272",
")!	c #5DC2FF",
"*!	c #9BDDFF",
"+!	c #8CD4FF",
",!	c #0C91E7",
"-!	c #4599CF",
".!	c #FFD542",
"0!	c #FDC838",
"1!	c #E69104",
"2!	c #B9780C",
"3!	c #004677",
"4!	c #4AB8FF",
"5!	c #1497EC",
"6!	c #008CE7",
"7!	c #835101",
"8!	c #CA7E03",
"9!	c #7E4E02",
":!	c #003D66",
";!	c #006CB1",
"                                ",
"                      #         ",
"                  $ % & '       ",
"      ( )       * + , - . 0     ",
"      1 2 3     4 5 6 7 8 9     ",
"      : ; < = > ? @ A B C D     ",
"        E F G H I J K L M       ",
"          N O P Q R S T         ",
"        U V W X Y Z [ ]         ",
"      ^ _ ` a b c d e f g       ",
"    h i j k l m n o p q r s     ",
"    i t u v w x y z { | } ~  !  ",
"  !!#!$!%!&!'!    (!)!*!+!,!-!  ",
"    .!0!1!2!        3!4!5!6!    ",
"    7!8!9!            :!;!      ",
"                                "};
