/* XPM */
static const char * sign_16x16x32b_xpm[] = {
"16 16 118 2",
"  	c None",
"! 	c black",
"# 	c #BEBEBE",
"$ 	c #D3D3D3",
"% 	c #E8E8E8",
"& 	c #F7F7F7",
"' 	c #E7E7E6",
"( 	c #EDEDED",
") 	c #A1A1A1",
"* 	c #D0D0D0",
"+ 	c #FAFAFA",
", 	c white",
"- 	c #DEDFDD",
". 	c #E8E7E8",
"0 	c #E1E0E1",
"1 	c #B6B5B4",
"2 	c #EAEAEB",
"3 	c #E7E7E7",
"4 	c #EAEAEA",
"5 	c #E9E9E9",
"6 	c #CDCECE",
"7 	c #EFEFEF",
"8 	c #B7B7B7",
"9 	c #D4696A",
": 	c #D9DCCE",
"; 	c #6D6659",
"< 	c #ECEEF3",
"= 	c #E0E0E1",
"> 	c #DDDDDD",
"? 	c #DBDBDB",
"@ 	c #DADADA",
"A 	c #C2C2C1",
"B 	c #C4C4C2",
"C 	c #D3D3D2",
"D 	c #CDCDCD",
"E 	c #D1CCB8",
"F 	c #FFE383",
"G 	c #F4C759",
"H 	c #E4E0DC",
"I 	c #D9DBE0",
"J 	c #D8D8D8",
"K 	c #D7D7D7",
"L 	c #D5D5D5",
"M 	c #D6D6D6",
"N 	c #E1E1E1",
"O 	c #C8C8C8",
"P 	c #AB6806",
"Q 	c #FFB648",
"R 	c #FFD56B",
"S 	c #EDBF51",
"T 	c #D9D6D4",
"U 	c #D1D3D7",
"V 	c #D1D1D1",
"W 	c #DCDCDC",
"X 	c #C7C7C7",
"Y 	c #D98212",
"Z 	c #FFBC54",
"[ 	c #FFD56C",
"] 	c #EBBD52",
"^ 	c #D7D5D6",
"_ 	c #D5D7DB",
"` 	c #DEDEDE",
"a 	c #C5C5C5",
"b 	c #FB9B2C",
"c 	c #FFCB6F",
"d 	c #FFE390",
"e 	c #E8BA52",
"f 	c #DDDCDD",
"g 	c #DADCDF",
"h 	c #E4E4E4",
"i 	c #C2C2C2",
"j 	c #E1C28E",
"k 	c #FCB365",
"l 	c #FFE0A0",
"m 	c #FFE199",
"n 	c #E9C182",
"o 	c #E0E4EA",
"p 	c #DFDFE0",
"q 	c #DFDFDF",
"r 	c #C4C4C4",
"s 	c #ADAEB0",
"t 	c #E1E6ED",
"u 	c #E0A54B",
"v 	c #FCB35B",
"w 	c #FFECBC",
"x 	c #EBB255",
"y 	c #F2F3F6",
"z 	c #ECECEC",
"{ 	c #CBCBCB",
"| 	c #EDF0F3",
"} 	c #F1F2F5",
"~ 	c #DFAC58",
" !	c #E1981D",
"!!	c #5B482E",
"#!	c #F9F9F9",
"$!	c #F4F4F4",
"%!	c #BCBCBC",
"&!	c #F0F0F0",
"'!	c #F4F5F5",
"(!	c #F7F9FC",
")!	c #F9FEFF",
"*!	c #9397A3",
"+!	c #999DA8",
",!	c #929292",
"-!	c #ACACAC",
".!	c #E5E5E5",
"0!	c #F7F7F6",
"1!	c #FCFCFC",
"2!	c #F8F8F8",
"3!	c #EBEBEB",
"4!	c #4E4E4E",
"5!	c #747474",
"6!	c #909090",
"7!	c #A4A4A4",
"8!	c #B1B1B1",
"9!	c #B8B8B8",
":!	c #515151",
";!	c #676767",
"                                ",
"            # $ % & ' ( )       ",
"          * + , , , - . 0 1     ",
"          2 3 4 3 5 6 + 7 0 8   ",
"    9 : ; < = > ? @ A B B C D   ",
"    E F G H I J K K L M M N O   ",
"    P Q R S T U V V V V V W X   ",
"      Y Z [ ] ^ _ M M L $ ` a   ",
"        b c d e f g ? @ J h i   ",
"        j k l m n o p q W 3 r   ",
"      s t u v w x y z 4 N 5 a   ",
"      { | } ~  !!!2 #!$!5 4 %!  ",
"      &!'!(!)!, *!+!#!$!7 % #   ",
"      ,!-!# * .!0!, , 1!2!3!i   ",
"              4!5!6!7!8!%!i 9!  ",
"                          :!;!  "};
