/* XPM */
const static char *_16f911b1da2455ebda304fb9ac651e852Tf24zZOpiJpypd[] = {
/* columns rows colors chars-per-pixel */
"48 48 240 2 ",
"   c None",
".  c #074412",
"X  c #074512",
"o  c #074513",
"O  c #084513",
"+  c #084613",
"@  c #084713",
"#  c #094714",
"$  c #084814",
"%  c #094814",
"&  c #094A14",
"*  c #0A4A14",
"=  c #0A4A15",
"-  c #0B4A15",
";  c #0A4C16",
":  c #0B4C16",
">  c #0A4D16",
",  c #0B4D16",
"<  c #0C4D16",
"1  c #0D4F17",
"2  c #0E5017",
"3  c #0D5018",
"4  c #0D5118",
"5  c #0E5118",
"6  c #0F5419",
"7  c #0F541C",
"8  c #10541A",
"9  c #11561B",
"0  c #13581B",
"q  c #14581B",
"w  c #12581C",
"e  c #12581F",
"r  c #14591C",
"t  c #165D1F",
"y  c #175D1F",
"u  c #175E1F",
"i  c #135F22",
"p  c #175D23",
"a  c #156224",
"s  c #176326",
"d  c #176624",
"f  c #1B6320",
"g  c #1A6322",
"h  c #1B6422",
"j  c #1D6521",
"k  c #186525",
"l  c #1A6726",
"z  c #1E6726",
"x  c #1A6825",
"c  c #1F6825",
"v  c #1F6925",
"b  c #1C6A25",
"n  c #1F6D27",
"m  c #1B6529",
"M  c #1B6628",
"N  c #1E6528",
"B  c #1F672E",
"V  c #1F6B2B",
"C  c #1F6C29",
"Z  c #1F692C",
"A  c #1F7025",
"S  c #246E29",
"D  c #256D2D",
"F  c #256E2F",
"G  c #227227",
"H  c #217028",
"J  c #23702B",
"K  c #26722A",
"L  c #247429",
"P  c #25742A",
"I  c #24702D",
"U  c #297328",
"Y  c #28732B",
"T  c #28722D",
"R  c #2B752D",
"E  c #2A762D",
"W  c #29782C",
"Q  c #226832",
"!  c #246C31",
"~  c #246834",
"^  c #266A34",
"/  c #276D34",
"(  c #296C37",
")  c #296D37",
"_  c #2A6D37",
"`  c #296E36",
"'  c #2A6E37",
"]  c #2B6F37",
"[  c #2B6F38",
"{  c #297133",
"}  c #2A7332",
"|  c #2A7530",
" . c #2B7530",
".. c #2D7632",
"X. c #2B7037",
"o. c #2C7236",
"O. c #2E7636",
"+. c #2D7830",
"@. c #2E7930",
"#. c #2E7932",
"$. c #2C7038",
"%. c #2D7138",
"&. c #2D7238",
"*. c #2E7238",
"=. c #2E7338",
"-. c #2E7339",
";. c #2F7439",
":. c #2F7539",
">. c #307B33",
",. c #327E31",
"<. c #307935",
"1. c #327B35",
"2. c #347D37",
"3. c #307539",
"4. c #307639",
"5. c #317639",
"6. c #317739",
"7. c #327739",
"8. c #32773A",
"9. c #317838",
"0. c #327839",
"q. c #32783A",
"w. c #33783A",
"e. c #33793A",
"r. c #337A3A",
"t. c #347A3A",
"y. c #347B3A",
"u. c #357B3A",
"i. c #357B3B",
"p. c #347C38",
"a. c #357C3B",
"s. c #367D3A",
"d. c #367C3B",
"f. c #367D3B",
"g. c #377D3B",
"h. c #377E3B",
"j. c #387E3B",
"k. c #387F3B",
"l. c #368330",
"z. c #358134",
"x. c #378336",
"c. c #3D8B37",
"v. c #378139",
"b. c #388238",
"n. c #3B863B",
"m. c #38803C",
"M. c #39803C",
"N. c #39813C",
"B. c #3A813C",
"V. c #3A823C",
"C. c #3B823C",
"Z. c #3B833C",
"A. c #3B833D",
"S. c #3B843C",
"D. c #3C843D",
"F. c #3C853D",
"G. c #3D853D",
"H. c #3D863D",
"J. c #3E863D",
"K. c #3E873D",
"L. c #3F873E",
"P. c #3E8A39",
"I. c #3E893B",
"U. c #3E883C",
"Y. c #3F883E",
"T. c #3F893E",
"R. c #408A3D",
"E. c #408B3D",
"W. c #40893E",
"Q. c #408A3E",
"!. c #418A3E",
"~. c #418B3E",
"^. c #418B3F",
"/. c #428B3E",
"(. c #418C3D",
"). c #428C3E",
"_. c #428C3F",
"`. c #428D3F",
"'. c #438D3F",
"]. c #438E3E",
"[. c #438E3F",
"{. c #448E3F",
"}. c #448F3F",
"|. c #458F3F",
" X c #409137",
".X c #429137",
"XX c #45913E",
"oX c #47953C",
"OX c #4B9C3D",
"+X c #4D9D3F",
"@X c #4D9E3F",
"#X c #4E9E3E",
"$X c #459040",
"%X c #469140",
"&X c #479240",
"*X c #479340",
"=X c #489340",
"-X c #499540",
";X c #489441",
":X c #499441",
">X c #499541",
",X c #4A9641",
"<X c #4B9741",
"1X c #4B9742",
"2X c #4B9941",
"3X c #4D9B41",
"4X c #4C9842",
"5X c #4C9942",
"6X c #4D9A42",
"7X c #4E9B42",
"8X c #4D9C40",
"9X c #4F9F40",
"0X c #4F9C43",
"qX c #4F9D43",
"wX c #509D43",
"eX c #519E43",
"rX c #519F43",
"tX c #52A044",
"yX c #52A144",
"uX c #53A144",
"iX c #53A244",
"pX c #54A244",
"aX c #54A344",
"sX c #55A344",
"dX c #55A445",
"fX c #56A545",
"gX c #56A645",
"hX c #57A645",
"jX c #58A745",
"kX c #57A844",
"lX c #58A846",
"zX c #59A946",
"xX c #5AAA46",
"cX c #5AAB46",
"vX c #5BAB46",
"bX c #5BAC46",
"nX c #5CAC47",
"mX c #5CAD47",
"MX c #5DAE47",
"NX c #5EAF47",
/* pixels */
"                                                                                                ",
"                                                                                                ",
"                                                                                                ",
"                                                                                                ",
"                                                                                                ",
"                                                                                                ",
"                                                                                                ",
"                                                                    . O .                       ",
"                                                                    O O . . O #                 ",
"                                                                  O O O O O . j W               ",
"                                                                O . O O . O q XX;XP             ",
"                                                              . O . . O . < P.;X$XXXH           ",
"                                                            O O O O O O % x.$X$X$X$XT.b         ",
"                                                            O . O . . O R =X$X$X'.R.K.K.b       ",
"                                                          . O . O . . H $X$X$XK.W.K.K.Z.J       ",
"                                                        O O O O O . y '.'.'.$XW.K.D.Z.|         ",
"                                                      O . . O . # 8 T.XXR.R.L.K.Z.Z.O.          ",
"                O                                   O O O O O O % x.'.'.$XR.L.A.Z.r.            ",
"              . . O                               . . O . . O % ..R.$XL.Z.D.Z.Z.g.x             ",
"            O . . O . %                           . . O . . O S $XT.K.K.Z.Z.k.d.C               ",
"          O O O O O O q c.                      O O O O O # g T.T.K.K.Z.Z.Z.g.I                 ",
"          . O . . O 2 @XmXOX                  . O . . O . w T.R.K.K.Z.Z.d.d.|                   ",
"        . . O O O % .XmXvXvX@Xn             . . O . . O 4 b.T.K.S.S.Z.d.d.O.                    ",
"      O O O O O O l.mXmXvXvXfX7XA         O O O O O # % >.K.K.S.Z.m.d.r.r.d                     ",
"      O . . O O U bXvXvXfXfXpXiX8XH     + + . . O . + I R.D.Z.k.k.d.g.r.k                       ",
"        . . O j fXvXkXfXfXiXiXiXqX2XP   . + . . O O z K.K.Z.Z.k.i.t.8.Z                         ",
"          O ; 9XvXvXfXfXiXwXwXwX7X7X;XK + + + + O t S.Z.Z.k.d.i.r.8.!                           ",
"              f 8XfXfXpXiXqX8X5X;X;X;X$XE % . . 8 v.Z.Z.k.d.t.i.8.|                             ",
"                r oXpXwXwXwX5X4X;X;X=XXX$X| % ; <.Z.Z.k.d.r.r.8.o.                              ",
"                  4 P.8X7X5X;X;X;X$X'.$X$XK.#.| Z.Z.g.t.i.8.8.&.k                               ",
"                    < ,.;X;X=X$X$X$XR.R.T.K.S.Z.d.d.t.r.8.8.&.M                                 ",
"                      % E =X$XR.$XL.$XK.S.Z.Z.g.g.g.r.8.&.&.Z                                   ",
"                        % H R.'.R.T.K.Z.Z.k.d.d.e.e.8.&.&.!                                     ",
"                            t n.K.K.D.Z.k.k.d.e.e.:.&.&./                                       ",
"                              8 2.Z.m.Z.d.i.e.e.8.&.&.[ a                                       ",
"                                4 ..d.d.i.8.8.&.&.[ [ s                                         ",
"                                  ; D t.8.8.8.&.[ ( M                                           ",
"                                    % N :.&.[ ] ( B                                             ",
"                                        p X.[ ( Q                                               ",
"                                          w ~ ~                                                 ",
"                                            9 i                                                 ",
"                                                                                                ",
"                                                                                                ",
"                                                                                                ",
"                                                                                                ",
"                                                                                                ",
"                                                                                                ",
"                                                                                                "
};
